<?xml version="1.0" encoding="UTF-8" standalone="no"?>
<svg width="200px" height="50px" viewBox="0 0 200 50" version="1.1" xmlns="http://www.w3.org/2000/svg" xmlns:xlink="http://www.w3.org/1999/xlink">
    <g stroke="none" stroke-width="1" fill="none" fill-rule="evenodd">
        <g transform="translate(10, 10)">
            <path d="M0,0 L12,0 C18,0 22,4 22,10 C22,16 18,20 12,20 L5,20 L5,30 L0,30 Z M5,5 L5,15 L12,15 C14.5,15 17,13.5 17,10 C17,6.5 14.5,5 12,5 L5,5 Z" fill="#FFFFFF"/>
            <path d="M30,0 L35,0 L35,12 L45,0 L51,0 L40,13 L51,30 L45,30 L37,17 L35,19.5 L35,30 L30,30 L30,0 Z" fill="#FFFFFF"/>
            <path d="M55,0 L60,0 L60,30 L55,30 L55,0 Z" fill="#FFFFFF"/>
            <path d="M65,0 L70,0 L70,25 L85,25 L85,30 L65,30 L65,0 Z" fill="#FFFFFF"/>
            <path d="M90,15 C90,6.5 96.5,0 105,0 C110,0 114,2 116.5,5 L113,8.5 C111,6 108.5,5 105,5 C99.5,5 95,9.5 95,15 C95,20.5 99.5,25 105,25 C108.5,25 111,23.5 113,21.5 L116.5,24.5 C114,28 110,30 105,30 C96.5,30 90,23.5 90,15 Z" fill="#FFFFFF"/>
            <path d="M125,15 L125,30 L120,30 L120,0 L125,0 L125,3 C127,1 130,0 132.5,0 C138.5,0 143,4.5 143,10.5 L143,30 L138,30 L138,11 C138,7 135,5 131.5,5 C128,5 125,7.5 125,11 L125,15 Z" fill="#FFFFFF"/>
            <path d="M150,0 L155,0 L155,30 L150,30 L150,0 Z" fill="#FFFFFF"/>
            <path d="M165,5 L165,13 L179,13 L179,18 L165,18 L165,30 L160,30 L160,0 L180,0 L180,5 L165,5 Z" fill="#FFFFFF"/>
        </g>
    </g>
</svg>